<mxfile host="app.diagrams.net" modified="2022-04-11T20:54:07.642Z" agent="5.0 (Macintosh; Intel Mac OS X 10_15_7) AppleWebKit/537.36 (KHTML, like Gecko) Chrome/100.0.4896.75 Safari/537.36" etag="F8qOBEBYKF32Nu7wJ3I4" version="16.6.7" type="github">
  <diagram id="o_MixPqv0_4BiwIbqiSc" name="Page-1">
    <mxGraphModel dx="462" dy="492" grid="1" gridSize="10" guides="1" tooltips="1" connect="1" arrows="1" fold="1" page="1" pageScale="1" pageWidth="827" pageHeight="1169" math="0" shadow="0">
      <root>
        <mxCell id="0" />
        <mxCell id="1" parent="0" visible="0" />
        <mxCell id="d2K84Am5ksO4wEe2rTeD-1" value="Cities" style="" parent="0" />
        <mxCell id="d2K84Am5ksO4wEe2rTeD-4" value="Berlin" style="ellipse;whiteSpace=wrap;html=1;aspect=fixed;strokeWidth=4;labelPosition=center;verticalLabelPosition=bottom;align=center;verticalAlign=top;fontSize=20;fontFamily=Ubuntu Mono;fontStyle=0;fontSource=https%3A%2F%2Ffonts.googleapis.com%2Fcss%3Ffamily%3DUbuntu%2BMono;" parent="d2K84Am5ksO4wEe2rTeD-1" vertex="1">
          <mxGeometry x="650" y="410" width="30" height="30" as="geometry" />
        </mxCell>
        <mxCell id="d2K84Am5ksO4wEe2rTeD-5" value="Köln" style="ellipse;whiteSpace=wrap;html=1;aspect=fixed;strokeWidth=4;labelPosition=center;verticalLabelPosition=bottom;align=center;verticalAlign=top;fontSize=20;fontFamily=Ubuntu Mono;fontStyle=0;fontSource=https%3A%2F%2Ffonts.googleapis.com%2Fcss%3Ffamily%3DUbuntu%2BMono;" parent="d2K84Am5ksO4wEe2rTeD-1" vertex="1">
          <mxGeometry x="110" y="600" width="30" height="30" as="geometry" />
        </mxCell>
        <mxCell id="d2K84Am5ksO4wEe2rTeD-6" value="München" style="ellipse;whiteSpace=wrap;html=1;aspect=fixed;strokeWidth=4;labelPosition=center;verticalLabelPosition=bottom;align=center;verticalAlign=top;fontSize=20;fontFamily=Ubuntu Mono;fontStyle=0;fontSource=https%3A%2F%2Ffonts.googleapis.com%2Fcss%3Ffamily%3DUbuntu%2BMono;" parent="d2K84Am5ksO4wEe2rTeD-1" vertex="1">
          <mxGeometry x="500" y="960" width="30" height="30" as="geometry" />
        </mxCell>
        <mxCell id="d2K84Am5ksO4wEe2rTeD-7" value="Hamburg" style="ellipse;whiteSpace=wrap;html=1;aspect=fixed;strokeWidth=4;labelPosition=center;verticalLabelPosition=bottom;align=center;verticalAlign=top;fontSize=20;fontFamily=Ubuntu Mono;fontStyle=0;fontSource=https%3A%2F%2Ffonts.googleapis.com%2Fcss%3Ffamily%3DUbuntu%2BMono;" parent="d2K84Am5ksO4wEe2rTeD-1" vertex="1">
          <mxGeometry x="370" y="270" width="30" height="30" as="geometry" />
        </mxCell>
        <mxCell id="-oncu3D1WfJPGxIniHrD-1" value="Köln-Berlin" parent="0" />
        <mxCell id="-oncu3D1WfJPGxIniHrD-2" value="" style="endArrow=none;html=1;rounded=1;fontFamily=Tahoma;fontSize=20;entryX=0;entryY=0.5;entryDx=0;entryDy=0;exitX=1;exitY=0;exitDx=0;exitDy=0;strokeColor=#006EAF;strokeWidth=5;fillColor=#1ba1e2;" edge="1" parent="-oncu3D1WfJPGxIniHrD-1" source="d2K84Am5ksO4wEe2rTeD-5" target="d2K84Am5ksO4wEe2rTeD-4">
          <mxGeometry width="50" height="50" relative="1" as="geometry">
            <mxPoint x="390" y="770" as="sourcePoint" />
            <mxPoint x="440" y="720" as="targetPoint" />
            <Array as="points">
              <mxPoint x="330" y="425" />
            </Array>
          </mxGeometry>
        </mxCell>
        <mxCell id="-oncu3D1WfJPGxIniHrD-22" value="Köln" style="shape=table;startSize=30;container=1;collapsible=0;childLayout=tableLayout;rounded=1;fontFamily=Ubuntu Mono;fontSource=https%3A%2F%2Ffonts.googleapis.com%2Fcss%3Ffamily%3DUbuntu%2BMono;fontSize=20;strokeColor=default;strokeWidth=2;html=0;arcSize=10;shadow=0;fontStyle=1;swimlaneLine=1;sketch=0;bottom=1;top=1;left=1;right=1;horizontal=1;swimlaneBody=1;swimlaneHead=1;comic=0;rowLines=0;columnLines=0;" vertex="1" parent="-oncu3D1WfJPGxIniHrD-1">
          <mxGeometry x="60" y="640" width="120" height="78" as="geometry" />
        </mxCell>
        <mxCell id="-oncu3D1WfJPGxIniHrD-23" value="" style="shape=tableRow;horizontal=0;startSize=0;swimlaneHead=0;swimlaneBody=0;top=0;left=0;bottom=0;right=0;collapsible=0;dropTarget=0;fillColor=none;points=[[0,0.5],[1,0.5]];portConstraint=eastwest;rounded=1;fontFamily=Ubuntu Mono;fontSource=https%3A%2F%2Ffonts.googleapis.com%2Fcss%3Ffamily%3DUbuntu%2BMono;fontSize=14;strokeColor=none;strokeWidth=2;html=0;" vertex="1" parent="-oncu3D1WfJPGxIniHrD-22">
          <mxGeometry y="30" width="120" height="16" as="geometry" />
        </mxCell>
        <mxCell id="-oncu3D1WfJPGxIniHrD-24" value="ICE 1155" style="shape=partialRectangle;html=1;connectable=0;overflow=hidden;fillColor=none;top=0;left=0;bottom=0;right=0;pointerEvents=0;rounded=1;fontFamily=Ubuntu Mono;fontSource=https%3A%2F%2Ffonts.googleapis.com%2Fcss%3Ffamily%3DUbuntu%2BMono;fontSize=14;strokeColor=none;strokeWidth=0;align=center;spacing=0;spacingRight=3;" vertex="1" parent="-oncu3D1WfJPGxIniHrD-23">
          <mxGeometry width="71" height="16" as="geometry">
            <mxRectangle width="71" height="16" as="alternateBounds" />
          </mxGeometry>
        </mxCell>
        <mxCell id="-oncu3D1WfJPGxIniHrD-25" value="6:17" style="shape=partialRectangle;html=1;connectable=0;overflow=hidden;fillColor=none;top=0;left=0;bottom=0;right=0;pointerEvents=0;rounded=1;fontFamily=Ubuntu Mono;fontSource=https%3A%2F%2Ffonts.googleapis.com%2Fcss%3Ffamily%3DUbuntu%2BMono;fontSize=14;strokeColor=none;strokeWidth=0;align=right;spacing=0;spacingRight=3;" vertex="1" parent="-oncu3D1WfJPGxIniHrD-23">
          <mxGeometry x="71" width="49" height="16" as="geometry">
            <mxRectangle width="49" height="16" as="alternateBounds" />
          </mxGeometry>
        </mxCell>
        <mxCell id="-oncu3D1WfJPGxIniHrD-26" value="" style="shape=tableRow;horizontal=0;startSize=0;swimlaneHead=0;swimlaneBody=0;top=0;left=0;bottom=0;right=0;collapsible=0;dropTarget=0;fillColor=none;points=[[0,0.5],[1,0.5]];portConstraint=eastwest;rounded=1;fontFamily=Ubuntu Mono;fontSource=https%3A%2F%2Ffonts.googleapis.com%2Fcss%3Ffamily%3DUbuntu%2BMono;fontSize=14;strokeColor=default;strokeWidth=2;html=0;" vertex="1" parent="-oncu3D1WfJPGxIniHrD-22">
          <mxGeometry y="46" width="120" height="16" as="geometry" />
        </mxCell>
        <mxCell id="-oncu3D1WfJPGxIniHrD-27" value="ICE 1157" style="shape=partialRectangle;html=1;connectable=0;overflow=hidden;fillColor=none;top=0;left=0;bottom=0;right=0;pointerEvents=0;rounded=1;fontFamily=Ubuntu Mono;fontSource=https%3A%2F%2Ffonts.googleapis.com%2Fcss%3Ffamily%3DUbuntu%2BMono;fontSize=14;strokeColor=none;strokeWidth=0;spacing=0;spacingRight=3;" vertex="1" parent="-oncu3D1WfJPGxIniHrD-26">
          <mxGeometry width="71" height="16" as="geometry">
            <mxRectangle width="71" height="16" as="alternateBounds" />
          </mxGeometry>
        </mxCell>
        <mxCell id="-oncu3D1WfJPGxIniHrD-28" value="12:17" style="shape=partialRectangle;html=1;connectable=0;overflow=hidden;fillColor=none;top=0;left=0;bottom=0;right=0;pointerEvents=0;rounded=1;fontFamily=Ubuntu Mono;fontSource=https%3A%2F%2Ffonts.googleapis.com%2Fcss%3Ffamily%3DUbuntu%2BMono;fontSize=14;strokeColor=none;strokeWidth=0;align=right;spacing=0;spacingRight=3;" vertex="1" parent="-oncu3D1WfJPGxIniHrD-26">
          <mxGeometry x="71" width="49" height="16" as="geometry">
            <mxRectangle width="49" height="16" as="alternateBounds" />
          </mxGeometry>
        </mxCell>
        <mxCell id="-oncu3D1WfJPGxIniHrD-29" value="" style="shape=tableRow;horizontal=0;startSize=0;swimlaneHead=0;swimlaneBody=0;top=0;left=0;bottom=0;right=0;collapsible=0;dropTarget=0;fillColor=none;points=[[0,0.5],[1,0.5]];portConstraint=eastwest;rounded=1;fontFamily=Ubuntu Mono;fontSource=https%3A%2F%2Ffonts.googleapis.com%2Fcss%3Ffamily%3DUbuntu%2BMono;fontSize=14;strokeColor=default;strokeWidth=2;html=0;" vertex="1" parent="-oncu3D1WfJPGxIniHrD-22">
          <mxGeometry y="62" width="120" height="16" as="geometry" />
        </mxCell>
        <mxCell id="-oncu3D1WfJPGxIniHrD-30" value="ICE 1159" style="shape=partialRectangle;html=1;connectable=0;overflow=hidden;fillColor=none;top=0;left=0;bottom=0;right=0;pointerEvents=0;rounded=1;fontFamily=Ubuntu Mono;fontSource=https%3A%2F%2Ffonts.googleapis.com%2Fcss%3Ffamily%3DUbuntu%2BMono;fontSize=14;strokeColor=none;strokeWidth=0;spacing=0;spacingRight=3;" vertex="1" parent="-oncu3D1WfJPGxIniHrD-29">
          <mxGeometry width="71" height="16" as="geometry">
            <mxRectangle width="71" height="16" as="alternateBounds" />
          </mxGeometry>
        </mxCell>
        <mxCell id="-oncu3D1WfJPGxIniHrD-31" value="18:17" style="shape=partialRectangle;html=1;connectable=0;overflow=hidden;fillColor=none;top=0;left=0;bottom=0;right=0;pointerEvents=0;rounded=1;fontFamily=Ubuntu Mono;fontSource=https%3A%2F%2Ffonts.googleapis.com%2Fcss%3Ffamily%3DUbuntu%2BMono;fontSize=14;strokeColor=none;strokeWidth=0;align=right;spacing=0;spacingRight=3;" vertex="1" parent="-oncu3D1WfJPGxIniHrD-29">
          <mxGeometry x="71" width="49" height="16" as="geometry">
            <mxRectangle width="49" height="16" as="alternateBounds" />
          </mxGeometry>
        </mxCell>
      </root>
    </mxGraphModel>
  </diagram>
</mxfile>
